PathFileType	4	(X/Y/Z)	D:\TRACE\spotREDO_2-26-24\spot_Both_Motion_1_7-platform.trc
DataRate	CameraRate	NumFrames	NumMarkers	Units	OrigDataRate	OrigDataStartFrame	OrigNumFrames
100.00	100.00	      68	5	mm	100.00	876	      7000
Frame#	Time	Left_Front			Right_Front			Left_Aft			Right_Aft			Post			
		X1	Y1	Z1	X2	Y2	Z2	X3	Y3	Z3	X4	Y4	Z4	X5	Y5	Z5	

876	8.750	-646.73865	-23.09470	-580.13843	768.09509	-11.04619	-495.82135	-718.29260	23.95230	637.60596	852.04974	32.03061	641.69434	62.55169	590.89056	-1007.03949	
877	8.760	-646.65082	-22.73470	-580.08319	768.11584	-10.85678	-495.77481	-718.18848	23.61507	637.71002	852.14063	31.93771	641.77985	62.51465	591.15350	-1006.85504	
878	8.770	-646.62683	-22.54939	-579.97760	768.10706	-10.69852	-495.64951	-718.16418	23.44065	637.78528	852.12579	31.75617	641.79156	62.49825	591.46906	-1006.64960	
879	8.780	-646.20471	-22.50459	-579.69482	768.04950	-10.55784	-495.69263	-718.10712	23.24343	637.83228	852.19757	31.52843	641.89368	62.59751	591.68469	-1006.48853	
880	8.790	-646.50598	-22.21995	-579.99182	768.05328	-10.41939	-495.65176	-718.05701	22.96650	637.87830	852.35986	31.08839	642.02185	62.77302	592.09625	-1006.15179	
881	8.800	-646.17029	-22.16306	-579.68262	768.08441	-10.27712	-495.58502	-718.04633	22.81140	637.91980	852.42999	30.88843	642.08136	62.93741	592.48425	-1005.80981	
882	8.810	-646.33453	-21.84726	-579.95526	768.33435	-10.20845	-495.38345	-718.10931	22.66372	637.94568	852.33813	30.88794	642.13782	62.88299	592.97327	-1005.51184	
883	8.820	-646.26611	-21.63545	-579.79987	768.46588	-10.01768	-495.23917	-718.08600	22.52601	637.95837	852.29413	30.75899	642.17480	62.79649	593.32129	-1005.04236	
884	8.830	-646.26807	-21.48918	-579.76813	768.33783	-9.77587	-495.27206	-718.10455	22.31858	638.07166	852.30994	30.64446	642.37427	62.69007	593.56451	-1004.87793	
885	8.840	-646.37982	-21.22061	-579.68506	768.36407	-9.49946	-495.21112	-718.16315	21.98208	638.16168	851.97845	30.00405	642.29498	62.72049	594.05566	-1004.36633	
886	8.850	-646.53534	-20.84356	-579.65247	768.32172	-9.27113	-495.15500	-718.33618	21.77577	638.06848	851.98627	29.56055	642.27924	62.97689	594.59271	-1003.84735	
887	8.860	-646.51880	-20.35714	-579.32227	768.05273	-8.95117	-495.27393	-718.29742	21.43981	638.17603	852.09155	29.29363	642.37030	62.71864	595.35596	-1003.75012	
888	8.870	-646.86456	-20.00689	-579.42017	767.92920	-8.51355	-495.16370	-718.34552	21.01642	638.37939	852.00482	29.15532	642.53070	62.44907	595.64825	-1003.61401	
889	8.880	-647.22992	-19.91591	-579.37573	767.95856	-8.51631	-494.94342	-718.49463	20.67252	638.51306	851.72711	28.84601	642.66064	62.03362	596.18958	-1003.23383	
890	8.890	-647.46399	-19.72466	-579.28088	767.68750	-8.19688	-494.90829	-718.81287	20.25303	638.58026	851.39240	28.59642	642.66870	62.05470	596.61993	-1002.66058	
891	8.900	-647.65973	-19.49619	-579.21179	767.36621	-8.05521	-494.85321	-719.25726	19.83062	638.56732	851.01489	28.22482	642.69067	61.26398	597.16797	-1002.36084	
892	8.910	-647.88196	-19.23788	-579.23419	767.04535	-7.86780	-494.75513	-719.44476	19.71900	638.70703	850.69934	27.98189	642.74481	61.13037	597.56653	-1002.19299	
893	8.920	-648.06390	-19.01202	-579.16638	766.68207	-7.54550	-494.77866	-719.70471	19.55375	638.86591	850.43976	27.79576	642.81555	61.04551	598.06128	-1001.68091	
894	8.930	-648.36859	-18.70024	-579.17316	766.29041	-7.36732	-494.73361	-720.05548	19.38639	638.92957	850.39490	27.50018	642.91815	60.95795	598.54865	-1001.08392	
895	8.940	-648.73523	-18.38751	-579.06140	766.07104	-7.22713	-494.75961	-720.34766	19.26932	639.06964	850.19244	27.17966	642.93939	60.60090	598.92053	-1000.72015	
896	8.950	-649.03650	-18.19415	-579.06360	765.50531	-6.83952	-494.93817	-720.80768	18.93425	639.07800	849.70367	26.82363	643.00940	60.05888	599.22833	-1000.44922	
897	8.960	-649.38354	-17.88880	-579.04205	765.20380	-6.69703	-494.88126	-721.05762	18.71893	639.01794	849.34875	26.70095	643.01483	59.83759	599.41211	-1000.37555	
898	8.970	-649.72009	-17.71084	-578.93488	764.97559	-6.43997	-494.84766	-721.37457	18.48795	639.10248	849.04974	26.61813	643.19666	59.25160	599.95221	-1000.13519	
899	8.980	-650.18658	-17.58530	-578.85944	764.71997	-6.24926	-494.57568	-721.46655	18.36357	639.20032	848.73083	26.34060	643.23181	59.04751	600.21954	-999.98334	
900	8.990	-650.67108	-17.34046	-578.73889	764.45056	-6.22956	-494.37872	-722.06091	18.05787	639.22095	848.29736	26.02806	643.26062	59.04969	600.84296	-999.52051	
901	9.000	-651.04492	-16.96209	-578.66211	763.87103	-6.01029	-494.29825	-722.51154	17.68578	639.28595	847.86475	25.70214	643.33856	58.69989	601.38660	-999.37244	
902	9.010	-651.39319	-16.52097	-578.63147	763.41699	-5.58519	-494.30997	-723.06079	17.37092	639.36731	847.53857	25.44670	643.49530	58.17131	601.80005	-999.23944	
903	9.020	-651.74786	-15.92976	-578.74121	763.12183	-5.43530	-494.24612	-723.37799	17.05125	639.46350	846.92761	25.03795	643.64642	57.65521	602.24799	-999.07288	
904	9.030	-652.09283	-15.99554	-578.74005	762.71210	-5.16518	-494.00928	-723.76434	16.67019	639.69275	846.45953	24.72307	643.68274	56.41989	603.04962	-998.67053	
905	9.040	-652.61353	-15.74734	-578.61536	762.26794	-4.86279	-493.96323	-724.30890	16.40042	639.82617	846.15125	24.36576	643.69360	56.01115	603.39685	-998.03705	
906	9.050	-653.15161	-15.31284	-578.41541	761.65753	-4.61133	-493.82697	-724.61340	16.17707	639.89520	845.74750	24.11177	643.86865	56.11195	603.87268	-997.44867	
907	9.060	-653.54742	-15.10041	-578.39661	761.19995	-4.39684	-493.76614	-725.23059	15.79948	639.97284	845.20868	23.82124	644.08154	56.14797	604.37250	-996.39716	
908	9.070	-654.18256	-14.72994	-578.34766	760.81451	-4.20640	-493.61526	-725.78662	15.47829	640.03345	844.72919	23.68999	644.28094	55.43256	604.99536	-995.79053	
909	9.080	-654.67853	-14.69504	-577.52966	760.32611	-3.90606	-493.75604	-726.27142	15.30189	640.06366	844.06305	23.38955	644.27502	54.84901	605.34601	-995.54572	
910	9.090	-654.96991	-14.54689	-577.84454	759.77808	-3.56340	-493.69910	-726.78979	15.01530	640.15472	843.67505	22.94719	644.18048	54.43793	605.93121	-995.06958	
911	9.100	-655.60938	-14.09421	-577.89844	758.89948	-3.12233	-493.68542	-727.37189	14.43547	640.11780	843.36688	22.60904	644.27850	53.93750	606.50781	-994.72998	
912	9.110	-656.27222	-13.85175	-578.00879	758.63245	-3.11639	-493.50543	-727.66797	14.25774	640.20984	842.94904	22.17271	644.44275	53.60100	606.89526	-994.58667	
913	9.120	-656.88416	-13.48991	-577.93500	758.18384	-2.92683	-493.43271	-728.12219	13.87588	640.33502	841.99127	21.74231	644.60699	52.97641	607.23077	-994.69977	
914	9.130	-657.47351	-13.14893	-577.88324	757.59106	-2.65022	-493.43286	-728.89203	13.52736	640.43134	841.47113	21.70423	644.56683	52.12256	607.76550	-994.57031	
915	9.140	-657.98816	-12.69379	-577.80231	757.14539	-2.34150	-493.13736	-729.42126	13.42068	640.56287	840.94904	21.43171	644.54584	51.42319	608.16437	-994.43738	
916	9.150	-658.44031	-12.42626	-577.65326	756.09857	-1.85988	-493.24963	-730.05878	13.09719	640.68793	840.20624	21.03455	644.62866	50.84365	608.74121	-994.17157	
917	9.160	-659.21259	-12.09247	-577.57751	755.67761	-1.64310	-493.13248	-730.45343	12.61544	640.86383	839.70593	20.64364	644.52936	50.52729	609.18030	-993.93701	
918	9.170	-659.67810	-11.89887	-577.57831	755.21802	-1.48643	-493.08908	-730.97894	12.31490	640.92310	839.14307	20.37039	644.73773	49.88097	609.76031	-993.41632	
919	9.180	-660.08319	-11.77861	-577.53265	754.71283	-1.43852	-492.98428	-731.63867	12.02127	641.01471	838.52319	20.07373	644.71832	49.40271	610.31720	-992.68903	
920	9.190	-660.94958	-11.20539	-577.35101	753.99048	-1.15108	-492.93976	-732.49268	11.76126	641.00104	837.64545	19.70125	644.85828	48.30143	610.77783	-992.11487	
921	9.200	-661.47980	-10.86934	-577.27246	753.09070	-0.78751	-492.87119	-733.08740	11.56234	641.04742	837.00372	19.52844	645.04364	47.73692	611.23798	-991.59857	
922	9.210	-662.49420	-10.59440	-577.35931	752.47583	-0.44329	-492.74316	-733.64990	11.27396	641.16003	836.30225	19.15173	645.17725	47.04974	612.06274	-991.00189	
923	9.220	-663.05103	-10.50190	-577.23224	752.06378	-0.45084	-492.49829	-734.61786	10.86188	641.10303	835.87195	18.82414	645.39777	46.21931	612.49792	-990.64197	
924	9.230	-663.61835	-10.19866	-577.08105	751.18488	0.05304	-492.55557	-735.16095	10.44868	641.43872	835.09485	18.39992	645.38507	45.26279	613.01324	-990.15814	
925	9.240	-664.34186	-9.56221	-577.01068	750.54974	0.37064	-492.60883	-735.84387	10.07820	641.55725	834.31689	18.05299	645.48553	44.72296	613.68347	-989.87701	
926	9.250	-665.00616	-9.22526	-576.98059	749.84082	0.58892	-492.48260	-736.38263	9.83589	641.54193	833.70544	17.67946	645.70374	44.31391	614.36658	-989.51813	
927	9.260	-665.91705	-8.94763	-576.89600	748.92163	1.18419	-492.46371	-737.12683	9.58775	641.60663	833.01605	17.39734	645.92438	43.75679	614.78876	-989.06897	
928	9.270	-666.51837	-8.58775	-576.89008	748.34821	1.26160	-492.19354	-738.07825	9.36380	641.75696	832.20099	17.03664	645.89447	42.61560	615.36658	-988.75690	
929	9.280	-667.22546	-8.39584	-576.85388	747.84045	1.55677	-492.13699	-738.94171	8.96144	641.79089	831.47723	16.56882	645.75977	42.11788	615.99939	-988.43005	
930	9.290	-668.00891	-8.03985	-576.93646	746.73114	1.94323	-492.17749	-739.40735	8.27092	641.93170	830.75085	16.19863	645.91461	41.27594	616.46228	-988.01367	
931	9.300	-668.81891	-7.69849	-576.79041	745.92029	2.09878	-492.04419	-739.92841	8.03171	641.98639	830.08936	15.92685	646.02460	40.48605	616.84357	-987.54059	
932	9.310	-669.58844	-7.32394	-576.68793	745.50946	2.22804	-491.88516	-741.02252	7.65756	642.09558	829.38898	15.61115	646.03979	39.79285	617.44189	-986.98010	
933	9.320	-670.34436	-7.07496	-576.38544	744.73059	2.64601	-491.82730	-741.82922	7.21092	642.15411	828.55548	15.35517	646.12714	39.42120	618.42786	-986.46442	
934	9.330	-671.12744	-6.68373	-576.48798	743.61188	2.90485	-491.75589	-742.49017	6.99161	642.27557	827.64764	15.02435	646.18744	38.68298	618.81329	-986.09906	
935	9.340	-672.08972	-6.16678	-576.30792	742.87262	2.92388	-491.68723	-743.22461	6.69984	642.29773	826.79346	14.61638	646.20282	37.71168	619.43628	-985.68195	
936	9.350	-672.83905	-5.93266	-576.23083	742.13654	3.03138	-491.60345	-744.19678	6.48282	642.43683	826.00610	14.28973	646.39258	36.80795	619.81219	-985.18756	
937	9.360	-673.59448	-5.68426	-576.11334	741.34088	3.30905	-491.56573	-744.90656	6.28447	642.49329	825.15875	13.82425	646.52478	36.19709	620.30933	-985.01563	
938	9.370	-674.42133	-5.68023	-576.10260	740.40930	3.71247	-491.57883	-745.75146	5.59543	642.55072	824.46198	13.66780	646.56012	35.78506	620.85992	-984.28888	
939	9.380	-675.30121	-5.24283	-575.91968	739.47711	4.14216	-491.58133	-746.56500	5.43905	642.69720	823.48145	13.25900	646.71454	34.64755	621.77087	-983.92474	
940	9.390	-676.35284	-4.64393	-575.83014	738.76764	4.34903	-491.27377	-747.55096	5.11582	642.90332	822.65668	12.76962	646.77655	33.68475	622.16003	-983.90955	
941	9.400	-676.92493	-4.38622	-575.98236	737.98608	4.67242	-491.24231	-748.30725	4.85292	642.91791	821.81805	12.46336	646.91016	32.63509	622.80420	-983.61664	
942	9.410	-677.76587	-3.98006	-575.77496	736.88348	5.22818	-491.23578	-749.10400	4.48061	643.05151	821.05328	12.12350	647.10388	32.04097	623.34021	-983.25781	
943	9.420	-678.69550	-3.61946	-575.66315	736.13495	5.40277	-491.02280	-750.18439	3.95388	643.10474	820.27197	11.67468	647.16992	30.65986	623.45477	-982.81934	
